# xmcd
#
# Track frame offsets:
#	150
#	43726
#	86486
#
# Disc length: 1496 seconds
#
# Revision: 1
# Processed by: cddbd v1.5.2PL0 Copyright (c) Steve Scherf et al.
# Submitted via: audiograbber 1.83.01
#
DISCID=1c05d603
DTITLE=Grateful Dead - 73-08-01A Roosevelt Stadium, Jersey City NJ
DYEAR=1900
DGENRE=
TTITLE0=Sugar Magnolia
TTITLE1=Going Down The Road Feeling Bad
TTITLE2=One More Saturday Night
EXTD=
EXTT0=
EXTT1=
EXTT2=
PLAYORDER=
